<svg xmlns="http://www.w3.org/2000/svg" viewBox="0 0 442.62 576"><defs><style>.cls-1{fill:#fff;}</style></defs><g id="Layer_2" data-name="Layer 2"><g id="Layer_1-2" data-name="Layer 1"><path class="cls-1" d="M123.38,566.55c9.46,9,16.55,9.45,98.33,9.45s88.87-.47,98.33-9.45c21.74-20.33,17.49-51.53-8.51-64.77-8-4.25-36.87-6.14-89.82-6.14-84.15,0-96.44,2.83-108.25,24.11C105.42,534.4,109.2,553.31,123.38,566.55Z"/><path class="cls-1" d="M165,5.89C87.45,26.69,27.42,88.62,7.09,167.56c-9.45,36.87-9.45,60,0,102.58,12.29,52.95,40.18,73.28,69.49,50.59,15.6-12.29,18.91-27.89,10.4-52-9.93-28.84-9-79.42,1.89-105.42,12.29-28.84,39.71-58.15,68.55-73.28,20.8-10.87,29.78-12.76,64.29-12.76S265.2,79.16,286,90c28.84,15.13,56.26,44.44,68.55,73.28,11.34,26.94,11.82,76.11.94,107.31-16.07,44.91-64.76,82.72-116.76,90.29-38.77,6.14-38.77,6.14-2.37-78.48,35.46-83.2,39.71-105.41,23.17-120.07-13.24-11.82-40.18-11.82-51.53,0-4.73,5.2-30.73,61.46-57.67,124.8C104,396.84,102.11,402.51,110.62,408.65c17.49,12.77,61.93,26.48,94.54,28.84,139,10.87,256.22-113.93,235-250.07C426.87,99.49,357.86,23.85,273.24,4.47,245.35-2.15,191-1.2,165,5.89Z"/></g></g></svg><svg version="1.0" xmlns="http://www.w3.org/2000/svg"
 width="600.000000pt" height="600.000000pt" viewBox="0 0 600.000000 600.000000"
 preserveAspectRatio="xMidYMid meet">
<metadata>
Created by potrace 1.16, written by Peter Selinger 2001-2019
</metadata>
<g transform="translate(0.000000,600.000000) scale(0.250000,-0.250000)"
fill="#000000" stroke="none">
<path d="M1100 1675 c-111 -31 -208 -120 -249 -230 -23 -62 -28 -165 -10 -230
21 -77 77 -107 119 -65 23 23 25 46 9 87 -20 52 -13 135 15 191 89 175 343
176 432 1 61 -120 13 -268 -107 -329 -37 -19 -139 -38 -139 -26 0 4 25 66 55
139 63 148 66 182 23 207 -25 13 -31 13 -54 0 -21 -12 -44 -56 -111 -215 -77
-183 -83 -200 -67 -212 72 -53 249 -58 346 -10 71 35 140 104 175 175 38 78
44 203 14 283 -40 107 -122 189 -221 224 -66 24 -165 28 -230 10z"/>
<path d="M1053 840 c-47 -20 -56 -78 -17 -109 24 -19 40 -21 164 -21 124 0
140 2 164 21 31 24 34 57 7 90 -18 23 -26 24 -158 26 -76 1 -148 -2 -160 -7z"/>
</g>
</svg>