<svg version="1.0" xmlns="http://www.w3.org/2000/svg"
 width="600.000000pt" height="600.000000pt" viewBox="0 0 600.000000 600.000000"
 preserveAspectRatio="xMidYMid meet">
<metadata>
Created by potrace 1.16, written by Peter Selinger 2001-2019
</metadata>
<g transform="translate(0.000000,600.000000) scale(0.250000,-0.250000)"
fill="#000000" stroke="none">
<path d="M1100 1675 c-111 -31 -208 -120 -249 -230 -23 -62 -28 -165 -10 -230
21 -77 77 -107 119 -65 23 23 25 46 9 87 -20 52 -13 135 15 191 89 175 343
176 432 1 61 -120 13 -268 -107 -329 -37 -19 -139 -38 -139 -26 0 4 25 66 55
139 63 148 66 182 23 207 -25 13 -31 13 -54 0 -21 -12 -44 -56 -111 -215 -77
-183 -83 -200 -67 -212 72 -53 249 -58 346 -10 71 35 140 104 175 175 38 78
44 203 14 283 -40 107 -122 189 -221 224 -66 24 -165 28 -230 10z"/>
<path d="M1053 840 c-47 -20 -56 -78 -17 -109 24 -19 40 -21 164 -21 124 0
140 2 164 21 31 24 34 57 7 90 -18 23 -26 24 -158 26 -76 1 -148 -2 -160 -7z"/>
</g>
</svg>